<svg id="Layer_1" data-name="Layer 1" xmlns="http://www.w3.org/2000/svg" viewBox="0 0 439.47 389"><defs><style>.cls-1{opacity:0.05;}.cls-2,.cls-4{fill:none;}.cls-2{stroke:#0844a5;stroke-width:4px;}.cls-3{fill:#ffc709;}.cls-4{stroke:#df3387;stroke-width:3px;}.cls-5{opacity:0.2;}.cls-6{fill:#f00000;}.cls-7{fill:#1eb5ef;}</style></defs><g id="Group_7" data-name="Group 7"><circle id="Ellipse_1" data-name="Ellipse 1" class="cls-1" cx="204.21" cy="198.5" r="190.5"/><g id="Ellipse_2" data-name="Ellipse 2"><circle class="cls-2" cx="42.21" cy="33.5" r="12.5"/></g><g id="Ellipse_3" data-name="Ellipse 3"><circle class="cls-2" cx="309.71" cy="361" r="8"/></g><g id="Polygon_2" data-name="Polygon 2"><path class="cls-3" d="M417.23,88l-4,19,18.44-6L417.23,88m-2.48-7.62,24.72,22.27-31.62,10.27Z" transform="translate(0 0.15)"/></g><g id="Polygon_3" data-name="Polygon 3"><path class="cls-3" d="M7,309.69l-1.5,6.69,6.66-2.16L7,309.69m-2.42-7.45L20,315.85,0,322.36Z" transform="translate(0 0.15)"/></g><g id="Rectangle_12" data-name="Rectangle 12"><rect class="cls-4" x="332.21" y="1.5" width="12" height="13"/></g><g id="immigration"><g id="Group_89" data-name="Group 89" class="cls-5"><path id="Path_2" data-name="Path 2" class="cls-6" d="M149,129.35a35.26,35.26,0,0,0-39.91,35v13.89a.35.35,0,0,0,.19.24l1.8.92.82-13.61a2.77,2.77,0,0,1,2.9-2.59c.06,0,1.35.06,3.51.05A35.37,35.37,0,0,1,149,129.35Z" transform="translate(0 0.15)"/><path id="Path_3" data-name="Path 3" class="cls-6" d="M120.47,185.7a3.52,3.52,0,0,0,4.75-1.53,3.58,3.58,0,0,0,.38-1.33v-.05l.85-14h1.16l-.38-.31c-4.24.29-7.72.33-10,.31l-.85,14v.05a3.47,3.47,0,0,1-.14.7Z" transform="translate(0 0.15)"/><path id="Path_4" data-name="Path 4" class="cls-6" d="M119.53,200.81v-4.72a2.77,2.77,0,0,0-2.29-2.72,6.79,6.79,0,0,1-5.62-6.7,7,7,0,0,1,0-.8l-.38-.17-4.5-2.32a5.77,5.77,0,0,1-1.7-1.32,4.28,4.28,0,0,0-2.46,3,6.83,6.83,0,0,0,5,8.25l.42.09a2.76,2.76,0,0,1,2.29,2.71v4.72a34.49,34.49,0,0,0,34.44,34.56,33.77,33.77,0,0,0,4.71-.31A34.6,34.6,0,0,1,119.53,200.81Z" transform="translate(0 0.15)"/><path id="Path_5" data-name="Path 5" class="cls-6" d="M140.29,247.44v-6.83a39.29,39.29,0,0,1-9.19-2.17v9a39.16,39.16,0,0,0,19.5,2.66,38.75,38.75,0,0,1-10.31-2.66Z" transform="translate(0 0.15)"/><path id="Path_6" data-name="Path 6" class="cls-6" d="M155.2,255.89a44.39,44.39,0,0,0,11.86-1.6L163,252.55a44.4,44.4,0,0,1-12.37,3.1,44.15,44.15,0,0,0,4.6.24Z" transform="translate(0 0.15)"/><path id="Path_7" data-name="Path 7" class="cls-6" d="M115.28,262.35l18.87-8.06a42.12,42.12,0,0,1-5.11-1.74l-22.95,9.8a17.4,17.4,0,0,0-9.42,13.88v22.59h9.19V276.23a17.38,17.38,0,0,1,9.42-13.88Z" transform="translate(0 0.15)"/></g><g id="Group_8" data-name="Group 8"><path id="Path_8" data-name="Path 8" class="cls-7" d="M169.28,226.42h5.52v27h-5.52Z" transform="translate(0 0.15)"/><path id="Path_9" data-name="Path 9" class="cls-7" d="M305.27,100.19H289.91V94.48a2.76,2.76,0,0,0-2.75-2.76H203.93a2.76,2.76,0,0,0-2.75,2.76h0v5.71h-20a12,12,0,0,0-11.95,11.94v26.44h5.52V112.13a6.43,6.43,0,0,1,6.43-6.43h20v4.58a2.75,2.75,0,0,0,2.75,2.75h83.23a2.76,2.76,0,0,0,2.76-2.75V105.7h15.35a6.43,6.43,0,0,1,6.43,6.43V264.6a6.43,6.43,0,0,1-6.43,6.43H197.77v5.51h107.5a12,12,0,0,0,11.94-11.94V112.13A12,12,0,0,0,305.27,100.19Zm-20.87,7.34H206.69V97.24H284.4Z" transform="translate(0 0.15)"/><path id="Path_10" data-name="Path 10" class="cls-7" d="M291.75,182.26H271.6a2.76,2.76,0,0,0,0,5.52h20.15a2.76,2.76,0,0,0,0-5.52Z" transform="translate(0 0.15)"/><path id="Path_11" data-name="Path 11" class="cls-7" d="M250.2,185a2.77,2.77,0,0,0,2.76,2.76h6.76a2.76,2.76,0,0,0,0-5.52H253A2.77,2.77,0,0,0,250.2,185Z" transform="translate(0 0.15)"/><path id="Path_12" data-name="Path 12" class="cls-7" d="M291.75,212.08h-6.84a2.76,2.76,0,1,0,0,5.51h6.84a2.76,2.76,0,1,0,0-5.51Z" transform="translate(0 0.15)"/><path id="Path_13" data-name="Path 13" class="cls-7" d="M236.11,214.84a2.75,2.75,0,0,0,2.75,2.75h36.51a2.76,2.76,0,1,0,0-5.51H238.86a2.75,2.75,0,0,0-2.75,2.76Z" transform="translate(0 0.15)"/><path id="Path_14" data-name="Path 14" class="cls-7" d="M229.2,212.08h-2.46a2.76,2.76,0,1,0,0,5.51h2.46a2.76,2.76,0,1,0,0-5.51Z" transform="translate(0 0.15)"/><path id="Path_15" data-name="Path 15" class="cls-7" d="M199.23,217.6h15.63a2.76,2.76,0,0,0,0-5.52H199.23a2.76,2.76,0,0,0,0,5.52Z" transform="translate(0 0.15)"/><path id="Path_16" data-name="Path 16" class="cls-7" d="M291.75,239.64H276a2.76,2.76,0,1,0,0,5.51h15.77a2.76,2.76,0,1,0,0-5.51Z" transform="translate(0 0.15)"/><path id="Path_17" data-name="Path 17" class="cls-7" d="M264.1,239.64a2.76,2.76,0,1,0,0,5.51h2a2.76,2.76,0,1,0,0-5.51Z" transform="translate(0 0.15)"/><path id="Path_18" data-name="Path 18" class="cls-7" d="M241.36,239.64a2.76,2.76,0,1,0,0,5.51h15a2.76,2.76,0,1,0,0-5.51Z" transform="translate(0 0.15)"/><path id="Path_19" data-name="Path 19" class="cls-7" d="M199.23,245.15h30a2.76,2.76,0,0,0,0-5.51h-30a2.76,2.76,0,1,0,0,5.51Z" transform="translate(0 0.15)"/><path id="Path_20" data-name="Path 20" class="cls-7" d="M291.75,158.79H290a2.76,2.76,0,0,0,0,5.51h1.78a2.76,2.76,0,1,0,0-5.51Z" transform="translate(0 0.15)"/><path id="Path_21" data-name="Path 21" class="cls-7" d="M258.56,164.3H278.1a2.76,2.76,0,0,0,0-5.51H258.56a2.76,2.76,0,1,0,0,5.51Z" transform="translate(0 0.15)"/><path id="Path_22" data-name="Path 22" class="cls-7" d="M291.75,135.82h-19.7a2.76,2.76,0,1,0,0,5.51h19.7a2.76,2.76,0,1,0,0-5.51Z" transform="translate(0 0.15)"/><path id="Path_23" data-name="Path 23" class="cls-7" d="M258.56,141.33h1.62a2.76,2.76,0,1,0,0-5.51h-1.63a2.76,2.76,0,1,0,0,5.51Z" transform="translate(0 0.15)"/><path id="Path_24" data-name="Path 24" class="cls-7" d="M218.83,129.07a30.33,30.33,0,1,0,30.32,30.33h0A30.32,30.32,0,0,0,218.83,129.07Zm0,55.14a24.82,24.82,0,1,1,24.81-24.81h0A24.81,24.81,0,0,1,218.83,184.21Z" transform="translate(0 0.15)"/><path id="Path_25" data-name="Path 25" class="cls-7" d="M230.88,147.38l-18.19,18.19-5.91-5.91a2.76,2.76,0,0,0-3.9,3.9l7.86,7.86a2.76,2.76,0,0,0,3.89,0h0l20.13-20.14a2.76,2.76,0,0,0-3.9-3.9Z" transform="translate(0 0.15)"/></g><path id="Path_26" data-name="Path 26" class="cls-6" d="M188.33,257.38l-.15-.07L166.43,248V234.59A40,40,0,0,0,185,200.82v-2.64a12.35,12.35,0,0,0,7.56-14.45,9.89,9.89,0,0,0-7.27-7.31V164.36a40.83,40.83,0,0,0-81.65,0v12.35a9.87,9.87,0,0,0-6.33,7,12.34,12.34,0,0,0,7.55,14.45v2.64a40.13,40.13,0,0,0,20.77,35.1V248l-21.75,9.28-.15.07a23,23,0,0,0-12.53,18.5c0,.08,0,.15,0,.23v25.46a2.76,2.76,0,0,0,2.76,2.76H198.1a2.75,2.75,0,0,0,2.76-2.76V276.11a1.85,1.85,0,0,0,0-.23A22.92,22.92,0,0,0,188.33,257.38Zm-79.22-93a35.32,35.32,0,1,1,70.63,0v12.55c-6.83.74-27.69,1.85-44.43-9.25,11.5-1.54,25.53-5.07,35.93-13a2.75,2.75,0,0,0-3.26-4.44l-.09.07c-18.93,14.51-52.74,13-53.07,13a2.78,2.78,0,0,0-2.9,2.59l-.82,13.61-1.8-.92a.35.35,0,0,1-.19-.24Zm1.23,36.46v-4.73a2.76,2.76,0,0,0-2.29-2.71,6.83,6.83,0,0,1-5.52-7.91l.09-.43a4.3,4.3,0,0,1,2.46-3,6,6,0,0,0,1.7,1.33l4.5,2.31a3.52,3.52,0,0,0,4.75-1.53,3.39,3.39,0,0,0,.37-1.33v-.05l.86-14c2.25,0,5.73,0,10-.31C149.74,187.63,181.6,182.28,183,182a2.62,2.62,0,0,0,.81-.29,4.38,4.38,0,0,1,3.38,3.29,6.83,6.83,0,0,1-5,8.25l-.43.09a2.76,2.76,0,0,0-2.28,2.71v4.73a34.56,34.56,0,0,1-69.11,0Zm34.55,40.07a39.94,39.94,0,0,0,16-3.35v9.9a39.25,39.25,0,0,1-29.81,0v-9a40.08,40.08,0,0,0,13.79,2.45Zm50.46,57.93H96.67V276.23a17.4,17.4,0,0,1,9.42-13.88l22.95-9.8a44.72,44.72,0,0,0,33.94,0l23,9.8a17.42,17.42,0,0,1,9.42,13.88Z" transform="translate(0 0.15)"/></g></g></svg>